<svg width="277" height="139" viewBox="0 0 277 139" fill="none" xmlns="http://www.w3.org/2000/svg">
<g clip-path="url(#clip0_297_86)">
<ellipse cx="219.647" cy="45.6804" rx="43.8523" ry="15.9094" fill="#EB6324"/>
<path d="M186.891 59.3299C181.564 56.853 178.85 55.1728 175.795 50.2674V63.5148C178.786 67.7955 181.486 69.3324 186.447 71.9505C190.183 73.4874 192.731 74.1278 197.388 75.2159C202.183 76.3677 205.018 76.7067 210.163 77.1208C217.264 77.4217 221.198 77.3791 228.172 77.1208C235.51 76.6564 239.551 75.9027 246.661 73.9234C250.904 72.7942 253.214 71.7969 257.235 69.5088C260.355 67.1897 261.772 65.8369 263.179 62.7699V50.0039C261.756 53.0089 260.635 54.4443 257.838 56.3885C252.86 59.2057 249.958 60.6083 244.146 62.1014C238.113 63.4352 234.64 64.0021 228.172 64.462C220.893 64.8538 216.838 64.8488 209.659 64.462C204.781 64.0529 202.081 63.6967 197.388 62.6149C193.241 61.7445 190.934 61.1017 186.891 59.3299Z" fill="#EB6324"/>
<path d="M186.891 75.0716C181.564 72.5947 178.85 70.9145 175.795 66.0091V79.2565C178.786 83.5372 181.486 85.0741 186.447 87.6922C190.183 89.2291 192.731 89.8695 197.388 90.9576C202.183 92.1094 205.018 92.4484 210.163 92.8625C217.264 93.1634 221.198 93.1208 228.172 92.8625C235.51 92.3981 239.551 91.6444 246.661 89.6651C250.904 88.5359 253.214 87.5386 257.235 85.2505C260.355 82.9314 261.772 81.5786 263.179 78.5116V65.7456C261.756 68.7506 260.635 70.186 257.838 72.1302C252.86 74.9474 249.958 76.35 244.146 77.8431C238.113 79.1769 234.64 79.7438 228.172 80.2037C220.893 80.5955 216.838 80.5905 209.659 80.2037C204.781 79.7946 202.081 79.4384 197.388 78.3566C193.241 77.4862 190.934 76.8434 186.891 75.0716Z" fill="#EB6324"/>
<path d="M186.891 90.8124C181.564 88.3354 178.85 86.6552 175.795 81.7499V94.9972C178.786 99.2779 181.486 100.815 186.447 103.433C190.183 104.97 192.731 105.61 197.388 106.698C202.183 107.85 205.018 108.189 210.163 108.603C217.264 108.904 221.198 108.862 228.172 108.603C235.51 108.139 239.551 107.385 246.661 105.406C250.904 104.277 253.214 103.279 257.235 100.991C260.355 98.6721 261.772 97.3193 263.179 94.2523V81.4863C261.756 84.4913 260.635 85.9267 257.838 87.871C252.86 90.6881 249.958 92.0907 244.146 93.5838C238.113 94.9176 234.64 95.4845 228.172 95.9445C220.893 96.3363 216.838 96.3312 209.659 95.9445C204.781 95.5353 202.081 95.1792 197.388 94.0973C193.241 93.2269 190.934 92.5841 186.891 90.8124Z" fill="#EB6324"/>
<path d="M248.465 71.7301C249.43 67.7586 255.087 67.7586 256.052 71.7301C256.197 72.3267 256.481 72.8807 256.88 73.3471C257.28 73.8135 257.785 74.1791 258.352 74.4141C258.92 74.649 259.536 74.7468 260.149 74.6993C260.762 74.6519 261.355 74.4606 261.88 74.141C265.374 72.015 269.376 76.0091 267.247 79.5011C266.928 80.025 266.736 80.6169 266.689 81.2285C266.642 81.8401 266.739 82.4543 266.974 83.0211C267.209 83.5879 267.575 84.0913 268.042 84.4904C268.508 84.8896 269.062 85.1731 269.659 85.3181C273.636 86.2815 273.636 91.9311 269.659 92.8946C269.062 93.0392 268.507 93.3226 268.04 93.7217C267.573 94.1209 267.207 94.6245 266.972 95.1917C266.736 95.7588 266.638 96.3734 266.686 96.9855C266.733 97.5975 266.925 98.1897 267.245 98.7138C269.374 102.204 265.374 106.2 261.877 104.074C261.353 103.755 260.76 103.564 260.148 103.517C259.535 103.469 258.92 103.567 258.352 103.801C257.785 104.036 257.281 104.401 256.881 104.867C256.481 105.333 256.197 105.887 256.052 106.483C255.087 110.454 249.43 110.454 248.465 106.483C248.32 105.886 248.036 105.332 247.637 104.866C247.237 104.399 246.733 104.034 246.165 103.799C245.597 103.564 244.981 103.466 244.368 103.513C243.755 103.561 243.162 103.752 242.638 104.072C239.143 106.198 235.141 102.204 237.27 98.7116C237.589 98.1877 237.781 97.5958 237.828 96.9842C237.876 96.3726 237.778 95.7584 237.543 95.1916C237.308 94.6248 236.942 94.1214 236.476 93.7223C236.009 93.3231 235.455 93.0396 234.858 92.8946C230.881 91.9311 230.881 86.2815 234.858 85.3181C235.455 85.1735 236.01 84.8901 236.477 84.491C236.944 84.0918 237.31 83.5882 237.546 83.021C237.781 82.4539 237.879 81.8393 237.831 81.2272C237.784 80.6152 237.592 80.023 237.272 79.4988C235.143 76.0091 239.143 72.0128 242.64 74.1387C244.905 75.5138 247.84 74.297 248.465 71.7301Z" stroke="white" stroke-width="9.15098" stroke-linecap="round" stroke-linejoin="round"/>
<path d="M245.464 89.1062C245.464 90.9057 246.18 92.6315 247.454 93.9039C248.728 95.1764 250.456 95.8912 252.258 95.8912C254.06 95.8912 255.789 95.1764 257.063 93.9039C258.337 92.6315 259.053 90.9057 259.053 89.1062C259.053 87.3068 258.337 85.581 257.063 84.3086C255.789 83.0361 254.06 82.3213 252.258 82.3213C250.456 82.3213 248.728 83.0361 247.454 84.3086C246.18 85.581 245.464 87.3068 245.464 89.1062Z" stroke="white" stroke-width="9.15098" stroke-linecap="round" stroke-linejoin="round"/>
<path d="M270.184 86.7037L266.028 85.4648C265.74 84.4628 265.345 83.495 264.849 82.5781L266.884 78.7745C266.96 78.631 266.988 78.4667 266.963 78.306C266.939 78.1453 266.863 77.9968 266.747 77.8825L263.782 74.9091C263.668 74.7935 263.519 74.7178 263.358 74.6932C263.197 74.6687 263.033 74.6966 262.889 74.7728L259.105 76.7923C258.177 76.2727 257.195 75.8572 256.177 75.5533L254.936 71.4525C254.884 71.3014 254.784 71.1708 254.653 71.0795C254.521 70.9882 254.364 70.9409 254.204 70.9445H250.011C249.849 70.9453 249.693 70.9973 249.563 71.0932C249.434 71.189 249.338 71.3235 249.291 71.4773L248.05 75.5657C247.023 75.868 246.033 76.2835 245.097 76.8047L241.375 74.7976C241.232 74.7213 241.067 74.6934 240.906 74.718C240.745 74.7425 240.597 74.8182 240.482 74.9339L237.467 77.8701C237.352 77.9844 237.276 78.1329 237.251 78.2936C237.227 78.4543 237.255 78.6186 237.331 78.7622L239.341 82.4789C238.82 83.4089 238.404 84.3936 238.1 85.4152L233.993 86.6541C233.84 86.7016 233.705 86.7969 233.609 86.9261C233.513 87.0554 233.461 87.2118 233.46 87.3727V91.5603C233.461 91.7212 233.513 91.8776 233.609 92.0068C233.705 92.1361 233.84 92.2314 233.993 92.2788L238.125 93.5178C238.432 94.5223 238.848 95.4903 239.366 96.4045L237.331 100.295C237.255 100.438 237.227 100.603 237.251 100.763C237.276 100.924 237.352 101.072 237.467 101.187L240.433 104.148C240.547 104.263 240.696 104.339 240.857 104.364C241.018 104.388 241.182 104.36 241.326 104.284L245.16 102.24C246.066 102.728 247.023 103.119 248.013 103.404L249.254 107.58C249.301 107.733 249.397 107.868 249.526 107.964C249.656 108.06 249.812 108.112 249.973 108.112H254.167C254.328 108.112 254.485 108.06 254.614 107.964C254.743 107.868 254.839 107.733 254.886 107.58L256.127 103.392C257.109 103.105 258.057 102.715 258.956 102.227L262.814 104.284C262.958 104.36 263.123 104.388 263.284 104.364C263.444 104.339 263.593 104.263 263.708 104.148L266.673 101.187C266.789 101.072 266.864 100.924 266.889 100.763C266.914 100.603 266.886 100.438 266.809 100.295L264.75 96.454C265.243 95.553 265.638 94.6018 265.928 93.6169L270.109 92.378C270.263 92.3305 270.398 92.2352 270.494 92.106C270.59 91.9767 270.642 91.8203 270.643 91.6594V87.4346C270.65 87.2806 270.61 87.128 270.528 86.9973C270.446 86.8667 270.326 86.7642 270.184 86.7037ZM252.107 96.3425C250.758 96.3425 249.438 95.9429 248.316 95.1941C247.194 94.4454 246.319 93.3812 245.803 92.1361C245.287 90.891 245.151 89.5209 245.415 88.1991C245.678 86.8773 246.328 85.6631 247.282 84.7101C248.237 83.7572 249.452 83.1082 250.776 82.8453C252.1 82.5823 253.472 82.7173 254.719 83.233C255.965 83.7488 257.031 84.6221 257.781 85.7427C258.531 86.8633 258.931 88.1807 258.931 89.5284C258.931 91.3356 258.212 93.0688 256.932 94.3467C255.653 95.6246 253.917 96.3425 252.107 96.3425Z" fill="#EB6324"/>
<circle cx="253.675" cy="90.2318" r="6.75669" fill="white"/>
<mask id="mask0_297_86" style="mask-type:luminance" maskUnits="userSpaceOnUse" x="4" y="52" width="7" height="8">
<path d="M4.35547 52.9629H10.3828V59.0884H4.35547V52.9629Z" fill="white"/>
</mask>
<g mask="url(#mask0_297_86)">
<path d="M4.35547 52.9629H10.3828V59.1012H4.35547V52.9629Z" fill="#FACA08"/>
</g>
<mask id="mask1_297_86" style="mask-type:luminance" maskUnits="userSpaceOnUse" x="4" y="64" width="7" height="7">
<path d="M4.35547 64.2515H10.3828V70.377H4.35547V64.2515Z" fill="white"/>
</mask>
<g mask="url(#mask1_297_86)">
<path d="M4.35547 64.2515H10.3828V70.3877H4.35547V64.2515Z" fill="#FACA08"/>
</g>
<path d="M53.4938 51.8872C55.5841 51.8872 57.3859 52.2885 58.897 53.091C60.406 53.8935 61.5729 55.0588 62.3937 56.5827C63.2144 58.1024 63.6248 59.9614 63.6248 62.1576V65.1456H49.0396C49.108 66.883 49.6295 68.2447 50.6041 69.235C51.583 70.2253 52.9424 70.7205 54.6822 70.7205C56.1292 70.7205 57.4522 70.5732 58.6491 70.2766C59.8503 69.982 61.0856 69.5381 62.3509 68.9447V73.7086C61.2331 74.2614 60.064 74.6647 58.8457 74.9209C57.6253 75.177 56.1441 75.305 54.4 75.305C52.1366 75.305 50.1297 74.891 48.3813 74.0586C46.6372 73.2219 45.2693 71.9499 44.2776 70.2424C43.2859 68.5307 42.79 66.3729 42.79 63.7711C42.79 61.131 43.2367 58.9305 44.1323 57.1718C45.0321 55.4131 46.2824 54.0941 47.8854 53.2105C49.4927 52.329 51.3608 51.8872 53.4938 51.8872ZM53.528 56.2754C52.3311 56.2754 51.3351 56.6596 50.5443 57.4279C49.7578 58.1963 49.3046 59.4 49.1849 61.0392H57.8454C57.8283 60.13 57.6595 59.3189 57.341 58.6061C57.0268 57.8889 56.5566 57.3233 55.9304 56.9071C55.302 56.4867 54.5026 56.2754 53.528 56.2754Z" fill="black"/>
<path d="M78.8633 51.8872C81.2743 51.8872 83.215 52.5446 84.6854 53.8593C86.1559 55.1741 86.8912 57.2807 86.8912 60.1769V74.9038H80.7185V61.7136C80.7185 60.098 80.4236 58.8793 79.838 58.0597C79.2502 57.2358 78.329 56.8218 77.0765 56.8218C75.1893 56.8218 73.9004 57.4621 73.2122 58.7427C72.5283 60.019 72.1863 61.863 72.1863 64.2748V74.9038H66.0137V52.3141H70.7244L71.5536 55.1997H71.8956C72.3851 54.4207 72.9899 53.7889 73.7081 53.3044C74.4305 52.822 75.2341 52.4656 76.119 52.2372C77.0017 52.0046 77.9165 51.8872 78.8633 51.8872Z" fill="black"/>
<mask id="mask2_297_86" style="mask-type:luminance" maskUnits="userSpaceOnUse" x="13" y="45" width="28" height="33">
<path d="M13.3301 45.3242H40.3973V77.6358H13.3301V45.3242Z" fill="white"/>
</mask>
<g mask="url(#mask2_297_86)">
<path d="M40.3849 61.4645C40.3849 52.5515 31.7266 45.3247 21.0442 45.3247H6.3457V52.3723H22.0594C28.0781 52.3723 32.9555 56.4424 32.9555 61.4645C32.9555 66.4866 28.076 70.5589 22.0594 70.5589H6.3457V77.6043H21.0442C31.7266 77.6043 40.3849 70.3796 40.3849 61.4645Z" fill="black"/>
</g>
<path d="M100.046 52.2632C103.077 52.2632 105.402 52.9248 107.022 54.2438C108.64 55.5586 109.45 57.5649 109.45 60.2626V75.3139H105.141L103.944 72.2405H103.782C103.136 73.0494 102.476 73.7089 101.798 74.2211C101.125 74.7334 100.349 75.109 99.473 75.3481C98.601 75.5914 97.5345 75.7152 96.2756 75.7152C94.9419 75.7152 93.745 75.459 92.6849 74.9468C91.629 74.4346 90.7976 73.6534 90.1885 72.599C89.5836 71.5404 89.2822 70.1979 89.2822 68.5694C89.2822 66.1683 90.1222 64.399 91.8043 63.2592C93.4906 62.1216 96.0212 61.492 99.3961 61.3725L103.32 61.253V60.2626C103.32 59.0802 103.008 58.2116 102.388 57.6588C101.766 57.1017 100.903 56.8221 99.7979 56.8221C98.7079 56.8221 97.6371 56.98 96.5834 57.2917C95.5275 57.599 94.476 57.9896 93.4287 58.4613L91.3854 54.3036C92.5823 53.6676 93.9245 53.1681 95.4121 52.8096C96.904 52.4467 98.4493 52.2632 100.046 52.2632ZM103.32 64.8472L100.935 64.9325C98.9344 64.9838 97.5452 65.3402 96.7715 65.9997C95.9956 66.6614 95.6087 67.5279 95.6087 68.6036C95.6087 69.5491 95.8845 70.2214 96.438 70.6184C96.9895 71.0175 97.714 71.216 98.6096 71.216C99.9304 71.216 101.046 70.8276 101.952 70.0464C102.863 69.261 103.32 68.149 103.32 66.7083V64.8472Z" fill="black"/>
<path d="M118.171 75.3138L109.554 52.7241H116.008L120.377 65.5984C120.621 66.3497 120.813 67.1436 120.95 67.9803C121.091 68.8169 121.192 69.5661 121.249 70.2256H121.412C121.45 69.5085 121.548 68.7465 121.702 67.9376C121.856 67.1308 122.061 66.3497 122.318 65.5984L126.669 52.7241H133.124L124.507 75.3138H118.171Z" fill="black"/>
<path d="M143.205 52.2974C145.295 52.2974 147.097 52.6986 148.608 53.5011C150.117 54.3036 151.284 55.469 152.105 56.9929C152.925 58.5125 153.336 60.3715 153.336 62.5677V65.5558H138.751C138.819 67.2931 139.34 68.6548 140.315 69.6452C141.294 70.6355 142.653 71.1307 144.393 71.1307C145.84 71.1307 147.163 70.9834 148.36 70.6867C149.561 70.3922 150.797 69.9482 152.062 69.3549V74.1187C150.944 74.6715 149.775 75.0749 148.557 75.331C147.336 75.5871 145.855 75.7152 144.111 75.7152C141.848 75.7152 139.841 75.3011 138.092 74.4687C136.348 73.6321 134.98 72.36 133.989 70.6526C132.997 68.9408 132.501 66.783 132.501 64.1813C132.501 61.5411 132.948 59.3406 133.843 57.582C134.743 55.8233 135.993 54.5043 137.596 53.6206C139.204 52.7392 141.072 52.2974 143.205 52.2974ZM143.239 56.6855C142.042 56.6855 141.046 57.0697 140.255 57.8381C139.469 58.6064 139.016 59.8102 138.896 61.4494H147.556C147.539 60.5401 147.37 59.7291 147.052 59.0162C146.738 58.2991 146.268 57.7335 145.641 57.3173C145.013 56.8968 144.214 56.6855 143.239 56.6855Z" fill="black"/>
<path d="M39.7 93.6163C39.05 93.6163 38.504 93.5427 38.062 93.3953C37.6286 93.248 37.2733 93.0573 36.996 92.8233C36.7186 92.5807 36.5063 92.3293 36.359 92.0693C36.2116 91.8093 36.1076 91.5623 36.047 91.3283C35.9863 91.0943 35.9473 90.9037 35.93 90.7563C35.9213 90.6003 35.917 90.5223 35.917 90.5223H37.672C37.672 90.5223 37.6763 90.5787 37.685 90.6913C37.7023 90.7953 37.7413 90.9297 37.802 91.0943C37.8713 91.259 37.9753 91.4237 38.114 91.5883C38.2613 91.7443 38.465 91.8787 38.725 91.9913C38.985 92.0953 39.323 92.1473 39.739 92.1473C40.2763 92.1473 40.727 92.0217 41.091 91.7703C41.455 91.519 41.637 91.1853 41.637 90.7693C41.637 90.4573 41.5243 90.206 41.299 90.0153C41.0736 89.8247 40.7833 89.6643 40.428 89.5343L39.349 89.1313C38.959 88.984 38.5993 88.802 38.27 88.5853C37.9493 88.3687 37.6936 88.0957 37.503 87.7663C37.3123 87.437 37.217 87.0427 37.217 86.5833C37.217 86.0807 37.3513 85.617 37.62 85.1923C37.8973 84.759 38.296 84.408 38.816 84.1393C39.3446 83.8707 39.986 83.7363 40.74 83.7363C41.3206 83.7363 41.8103 83.8057 42.209 83.9443C42.6076 84.083 42.9326 84.2607 43.184 84.4773C43.444 84.694 43.6433 84.9237 43.782 85.1663C43.9293 85.409 44.0333 85.6387 44.094 85.8553C44.1546 86.072 44.1893 86.2497 44.198 86.3883C44.2153 86.5183 44.224 86.5833 44.224 86.5833H42.521C42.521 86.5833 42.508 86.514 42.482 86.3753C42.456 86.228 42.3866 86.0633 42.274 85.8813C42.1613 85.6907 41.9836 85.526 41.741 85.3873C41.4983 85.24 41.1646 85.1663 40.74 85.1663C40.1853 85.1663 39.752 85.292 39.44 85.5433C39.128 85.7947 38.972 86.1067 38.972 86.4793C38.972 86.774 39.0673 87.0167 39.258 87.2073C39.4573 87.398 39.7216 87.5583 40.051 87.6883L41.052 88.0653C41.4853 88.2127 41.8796 88.399 42.235 88.6243C42.5903 88.8497 42.872 89.1313 43.08 89.4693C43.2966 89.8073 43.405 90.219 43.405 90.7043C43.405 91.233 43.249 91.7183 42.937 92.1603C42.6336 92.6023 42.2046 92.9577 41.65 93.2263C41.0953 93.4863 40.4453 93.6163 39.7 93.6163ZM48.0054 86.4663C48.482 86.4663 48.8634 86.5443 49.1494 86.7003C49.444 86.8563 49.665 87.034 49.8124 87.2333C49.9597 87.424 50.055 87.5757 50.0984 87.6883H50.1894L50.4234 86.5963H52.1524L50.6964 93.4863H48.9544L49.1494 92.6023H49.0714C49.0714 92.6023 49.0324 92.6543 48.9544 92.7583C48.8764 92.8537 48.755 92.9707 48.5904 93.1093C48.4344 93.2393 48.2264 93.3563 47.9664 93.4603C47.7064 93.5643 47.39 93.6163 47.0174 93.6163C46.4367 93.6163 45.9514 93.4777 45.5614 93.2003C45.18 92.923 44.894 92.559 44.7034 92.1083C44.5127 91.649 44.4174 91.155 44.4174 90.6263C44.4174 90.141 44.4954 89.6557 44.6514 89.1703C44.816 88.6763 45.05 88.2257 45.3534 87.8183C45.6654 87.411 46.0424 87.086 46.4844 86.8433C46.9264 86.592 47.4334 86.4663 48.0054 86.4663ZM48.2784 87.8833C47.8364 87.8833 47.455 88.0177 47.1344 88.2863C46.8137 88.555 46.5667 88.893 46.3934 89.3003C46.2287 89.699 46.1464 90.102 46.1464 90.5093C46.1464 90.96 46.259 91.3543 46.4844 91.6923C46.7184 92.0303 47.0867 92.1993 47.5894 92.1993C48.04 92.1993 48.4214 92.065 48.7334 91.7963C49.054 91.5277 49.2967 91.194 49.4614 90.7953C49.6347 90.388 49.7214 89.985 49.7214 89.5863C49.7214 89.127 49.6044 88.7283 49.3704 88.3903C49.145 88.0523 48.781 87.8833 48.2784 87.8833ZM52.1063 93.4863L54.2253 83.6063H55.9543L53.8483 93.4863H52.1063ZM58.9192 93.6163C58.2085 93.6163 57.6235 93.4733 57.1642 93.1873C56.7135 92.8927 56.3798 92.507 56.1632 92.0303C55.9465 91.5537 55.8382 91.0467 55.8382 90.5093C55.8382 90.0327 55.9205 89.556 56.0852 89.0793C56.2585 88.594 56.5098 88.1563 56.8392 87.7663C57.1685 87.3763 57.5715 87.0643 58.0482 86.8303C58.5335 86.5877 59.0925 86.4663 59.7252 86.4663C60.3318 86.4663 60.8345 86.5833 61.2332 86.8173C61.6318 87.0513 61.9395 87.359 62.1562 87.7403C62.3728 88.113 62.5072 88.5247 62.5592 88.9753C62.6112 89.4173 62.5895 89.8507 62.4942 90.2753L62.4422 90.5223H57.5282C57.5368 91.025 57.6625 91.4453 57.9052 91.7833C58.1565 92.1127 58.5378 92.2773 59.0492 92.2773C59.3438 92.2773 59.5865 92.2297 59.7772 92.1343C59.9765 92.039 60.1325 91.9263 60.2452 91.7963C60.3665 91.6663 60.4488 91.5537 60.4922 91.4583C60.5442 91.363 60.5702 91.3153 60.5702 91.3153H62.2082C62.2082 91.3153 62.1778 91.3933 62.1172 91.5493C62.0565 91.6967 61.9525 91.8873 61.8052 92.1213C61.6578 92.3467 61.4585 92.5763 61.2072 92.8103C60.9645 93.0357 60.6525 93.2263 60.2712 93.3823C59.8985 93.5383 59.4478 93.6163 58.9192 93.6163ZM57.7232 89.3913H60.9862C61.0295 89.1227 61.0078 88.867 60.9212 88.6243C60.8345 88.3817 60.6828 88.1867 60.4662 88.0393C60.2582 87.8833 59.9852 87.8053 59.6472 87.8053C59.1618 87.8053 58.7502 87.9613 58.4122 88.2733C58.0828 88.5853 57.8532 88.958 57.7232 89.3913ZM65.8029 93.6163C65.2309 93.6163 64.7629 93.5383 64.3989 93.3823C64.0349 93.2263 63.7489 93.0357 63.5409 92.8103C63.3329 92.585 63.1812 92.3597 63.0859 92.1343C62.9992 91.9003 62.9429 91.7097 62.9169 91.5623C62.8995 91.4063 62.8909 91.3283 62.8909 91.3283H64.5809C64.5809 91.3283 64.5895 91.376 64.6069 91.4713C64.6329 91.5667 64.6849 91.6793 64.7629 91.8093C64.8495 91.9307 64.9839 92.039 65.1659 92.1343C65.3479 92.2297 65.5949 92.2773 65.9069 92.2773C66.2882 92.2773 66.5785 92.2037 66.7779 92.0563C66.9772 91.9003 67.0769 91.714 67.0769 91.4973C67.0769 91.3067 66.9989 91.1593 66.8429 91.0553C66.6955 90.9513 66.5135 90.8647 66.2969 90.7953L65.4779 90.5483C64.9492 90.3837 64.5375 90.1497 64.2429 89.8463C63.9482 89.543 63.8009 89.153 63.8009 88.6763C63.8009 88.2863 63.9049 87.9267 64.1129 87.5973C64.3209 87.2593 64.6285 86.9863 65.0359 86.7783C65.4432 86.5703 65.9415 86.4663 66.5309 86.4663C67.0509 86.4663 67.4755 86.54 67.8049 86.6873C68.1429 86.826 68.4072 86.9993 68.5979 87.2073C68.7972 87.4153 68.9402 87.6233 69.0269 87.8313C69.1222 88.0393 69.1829 88.217 69.2089 88.3643C69.2349 88.503 69.2479 88.5723 69.2479 88.5723H67.6229C67.6229 88.5723 67.6099 88.5333 67.5839 88.4553C67.5579 88.3773 67.5059 88.2863 67.4279 88.1823C67.3499 88.0783 67.2285 87.9873 67.0639 87.9093C66.9079 87.8313 66.6955 87.7923 66.4269 87.7923C66.0975 87.7923 65.8462 87.866 65.6729 88.0133C65.4995 88.1607 65.4129 88.3383 65.4129 88.5463C65.4129 88.7197 65.4735 88.8627 65.5949 88.9753C65.7249 89.0793 65.8939 89.166 66.1019 89.2353L66.8819 89.4823C67.2112 89.569 67.5145 89.699 67.7919 89.8723C68.0692 90.037 68.2902 90.2493 68.4549 90.5093C68.6282 90.7607 68.7149 91.064 68.7149 91.4193C68.7149 91.818 68.6022 92.1863 68.3769 92.5243C68.1515 92.8537 67.8222 93.118 67.3889 93.3173C66.9555 93.5167 66.4269 93.6163 65.8029 93.6163ZM70.4356 93.6163C70.141 93.6163 69.8983 93.5167 69.7076 93.3173C69.517 93.1093 69.4216 92.8667 69.4216 92.5893C69.4216 92.312 69.517 92.0737 69.7076 91.8743C69.8983 91.675 70.141 91.5753 70.4356 91.5753C70.7303 91.5753 70.973 91.675 71.1636 91.8743C71.363 92.0737 71.4626 92.312 71.4626 92.5893C71.4626 92.8753 71.363 93.118 71.1636 93.3173C70.973 93.5167 70.7303 93.6163 70.4356 93.6163ZM72.5346 93.4863L74.5756 83.8663H80.8676L80.5556 85.4003H76.0186L75.4986 87.8443H79.4376L79.1256 89.3393H75.1736L74.6276 91.9523H79.2166L78.8916 93.4863H72.5346ZM80.1538 93.4863L81.6228 86.5963H83.3648L83.1438 87.5843H83.2218C83.2218 87.5843 83.2565 87.528 83.3258 87.4153C83.4038 87.3027 83.5252 87.1727 83.6898 87.0253C83.8545 86.878 84.0625 86.748 84.3138 86.6353C84.5738 86.5227 84.8815 86.4663 85.2368 86.4663C85.7482 86.4663 86.1598 86.592 86.4718 86.8433C86.7925 87.0947 87.0092 87.4283 87.1218 87.8443C87.2432 88.2603 87.2475 88.7153 87.1348 89.2093L86.2248 93.4863H84.4958L85.3668 89.3653C85.4535 88.9667 85.4232 88.6243 85.2758 88.3383C85.1285 88.0437 84.8468 87.8963 84.4308 87.8963C83.9628 87.8963 83.5858 88.0653 83.2998 88.4033C83.0138 88.7327 82.8232 89.1357 82.7278 89.6123L81.8958 93.4863H80.1538ZM91.5879 86.4663C92.0645 86.4663 92.4459 86.5443 92.7319 86.7003C93.0265 86.8563 93.2475 87.034 93.3949 87.2333C93.5422 87.424 93.6375 87.5757 93.6809 87.6883H93.7719L94.0059 86.5963H95.7349L94.2789 93.4863H92.5369L92.7319 92.6023H92.6539C92.6539 92.6023 92.6149 92.6543 92.5369 92.7583C92.4589 92.8537 92.3375 92.9707 92.1729 93.1093C92.0169 93.2393 91.8089 93.3563 91.5489 93.4603C91.2889 93.5643 90.9725 93.6163 90.5999 93.6163C90.0192 93.6163 89.5339 93.4777 89.1439 93.2003C88.7625 92.923 88.4765 92.559 88.2859 92.1083C88.0952 91.649 87.9999 91.155 87.9999 90.6263C87.9999 90.141 88.0779 89.6557 88.2339 89.1703C88.3985 88.6763 88.6325 88.2257 88.9359 87.8183C89.2479 87.411 89.6249 87.086 90.0669 86.8433C90.5089 86.592 91.0159 86.4663 91.5879 86.4663ZM91.8609 87.8833C91.4189 87.8833 91.0375 88.0177 90.7169 88.2863C90.3962 88.555 90.1492 88.893 89.9759 89.3003C89.8112 89.699 89.7289 90.102 89.7289 90.5093C89.7289 90.96 89.8415 91.3543 90.0669 91.6923C90.3009 92.0303 90.6692 92.1993 91.1719 92.1993C91.6225 92.1993 92.0039 92.065 92.3159 91.7963C92.6365 91.5277 92.8792 91.194 93.0439 90.7953C93.2172 90.388 93.3039 89.985 93.3039 89.5863C93.3039 89.127 93.1869 88.7283 92.9529 88.3903C92.7275 88.0523 92.3635 87.8833 91.8609 87.8833ZM99.8618 93.6163C99.3852 93.6163 98.9995 93.5383 98.7048 93.3823C98.4188 93.2263 98.2022 93.053 98.0548 92.8623C97.9075 92.663 97.8122 92.507 97.7688 92.3943H97.6778L97.4438 93.4863H95.7018L97.8078 83.6063H99.5498L98.7178 87.4803H98.7958C98.7958 87.4803 98.8348 87.4327 98.9128 87.3373C98.9908 87.2333 99.1078 87.1163 99.2638 86.9863C99.4285 86.8477 99.6408 86.7263 99.9008 86.6223C100.161 86.5183 100.477 86.4663 100.85 86.4663C101.431 86.4663 101.912 86.605 102.293 86.8823C102.683 87.1597 102.973 87.528 103.164 87.9873C103.355 88.438 103.45 88.9277 103.45 89.4563C103.45 89.9417 103.368 90.4313 103.203 90.9253C103.047 91.4107 102.813 91.857 102.501 92.2643C102.198 92.6717 101.825 93.001 101.383 93.2523C100.941 93.495 100.434 93.6163 99.8618 93.6163ZM99.5758 92.1993C100.027 92.1993 100.412 92.065 100.733 91.7963C101.054 91.5277 101.296 91.194 101.461 90.7953C101.634 90.388 101.721 89.9807 101.721 89.5733C101.721 89.1227 101.604 88.7283 101.37 88.3903C101.145 88.0523 100.776 87.8833 100.265 87.8833C99.8228 87.8833 99.4415 88.0177 99.1208 88.2863C98.8088 88.555 98.5662 88.893 98.3928 89.3003C98.2195 89.699 98.1328 90.0977 98.1328 90.4963C98.1328 90.9557 98.2498 91.3543 98.4838 91.6923C98.7178 92.0303 99.0818 92.1993 99.5758 92.1993ZM103.894 93.4863L106.013 83.6063H107.742L105.636 93.4863H103.894ZM110.706 93.6163C109.996 93.6163 109.411 93.4733 108.951 93.1873C108.501 92.8927 108.167 92.507 107.95 92.0303C107.734 91.5537 107.625 91.0467 107.625 90.5093C107.625 90.0327 107.708 89.556 107.872 89.0793C108.046 88.594 108.297 88.1563 108.626 87.7663C108.956 87.3763 109.359 87.0643 109.835 86.8303C110.321 86.5877 110.88 86.4663 111.512 86.4663C112.119 86.4663 112.622 86.5833 113.02 86.8173C113.419 87.0513 113.727 87.359 113.943 87.7403C114.16 88.113 114.294 88.5247 114.346 88.9753C114.398 89.4173 114.377 89.8507 114.281 90.2753L114.229 90.5223H109.315C109.324 91.025 109.45 91.4453 109.692 91.7833C109.944 92.1127 110.325 92.2773 110.836 92.2773C111.131 92.2773 111.374 92.2297 111.564 92.1343C111.764 92.039 111.92 91.9263 112.032 91.7963C112.154 91.6663 112.236 91.5537 112.279 91.4583C112.331 91.363 112.357 91.3153 112.357 91.3153H113.995C113.995 91.3153 113.965 91.3933 113.904 91.5493C113.844 91.6967 113.74 91.8873 113.592 92.1213C113.445 92.3467 113.246 92.5763 112.994 92.8103C112.752 93.0357 112.44 93.2263 112.058 93.3823C111.686 93.5383 111.235 93.6163 110.706 93.6163ZM109.51 89.3913H112.773C112.817 89.1227 112.795 88.867 112.708 88.6243C112.622 88.3817 112.47 88.1867 112.253 88.0393C112.045 87.8833 111.772 87.8053 111.434 87.8053C110.949 87.8053 110.537 87.9613 110.199 88.2733C109.87 88.5853 109.64 88.958 109.51 89.3913ZM117.68 93.6163C117.1 93.6163 116.614 93.4777 116.224 93.2003C115.843 92.923 115.557 92.559 115.366 92.1083C115.176 91.649 115.08 91.155 115.08 90.6263C115.08 90.141 115.158 89.6557 115.314 89.1703C115.479 88.6763 115.713 88.2257 116.016 87.8183C116.328 87.411 116.705 87.086 117.147 86.8433C117.589 86.592 118.096 86.4663 118.668 86.4663C119.145 86.4663 119.526 86.5443 119.812 86.7003C120.107 86.8563 120.328 87.034 120.475 87.2333C120.623 87.424 120.718 87.5757 120.761 87.6883H120.852L121.723 83.6063H123.465L121.359 93.4863H119.617L119.812 92.6023H119.734C119.734 92.6023 119.695 92.6543 119.617 92.7583C119.539 92.8537 119.418 92.9707 119.253 93.1093C119.097 93.2393 118.889 93.3563 118.629 93.4603C118.369 93.5643 118.053 93.6163 117.68 93.6163ZM118.252 92.1993C118.703 92.1993 119.084 92.065 119.396 91.7963C119.717 91.5277 119.96 91.194 120.124 90.7953C120.298 90.388 120.384 89.985 120.384 89.5863C120.384 89.127 120.267 88.7283 120.033 88.3903C119.808 88.0523 119.444 87.8833 118.941 87.8833C118.499 87.8833 118.118 88.0177 117.797 88.2863C117.477 88.555 117.23 88.893 117.056 89.3003C116.892 89.699 116.809 90.102 116.809 90.5093C116.809 90.96 116.922 91.3543 117.147 91.6923C117.381 92.0303 117.75 92.1993 118.252 92.1993Z" fill="black"/>
</g>
<defs>
<clipPath id="clip0_297_86">
<rect width="277" height="139" fill="white"/>
</clipPath>
</defs>
</svg>
